<svg width="24" height="24" viewBox="0 0 24 24" fill="none" xmlns="http://www.w3.org/2000/svg">
    <path d="M14.5163 2.19391C14.9368 2.3247 16.2867 2.86033 18.2365 4.76185C20.0744 6.5542 20.6679 7.82677 20.8423 8.31047C20.8815 9.36112 20.9062 10.5844 20.9062 12C20.9062 15.7802 20.7304 18.1894 20.5702 19.6005C20.453 20.6325 19.6783 21.4043 18.6467 21.5246C17.3272 21.6786 15.1719 21.8438 12 21.8438C8.82797 21.8438 6.67275 21.6786 5.3532 21.5246C4.32164 21.4043 3.54693 20.6325 3.42974 19.6005C3.26948 18.1894 3.09375 15.7802 3.09375 12C3.09375 8.21981 3.26948 5.81062 3.42974 4.39953C3.54693 3.36761 4.32164 2.5958 5.3532 2.47545C6.67275 2.32151 8.82797 2.15625 12 2.15625C12.9234 2.15625 13.7607 2.17026 14.5163 2.19391Z" stroke="currentColor" stroke-linecap="round" stroke-linejoin="round"/>
    <path d="M6.84375 18.0938H17.1562" stroke="currentColor" stroke-linecap="round" stroke-linejoin="round"/>
    <path d="M6.84375 14.8125H17.1562" stroke="currentColor" stroke-linecap="round" stroke-linejoin="round"/>
    <path d="M6.84375 11.4698C8.04914 9.62751 9.05466 8.81854 9.6075 8.47894C9.86873 8.31844 10.1844 8.42358 10.32 8.69854C10.631 9.32897 10.9243 10.1954 11.1344 10.8825C11.2578 11.286 11.8467 11.373 12.106 11.0401C13.1495 9.70111 14.5781 8.48479 14.5781 8.48479" stroke="currentColor" stroke-linecap="round" stroke-linejoin="round"/>
    <path d="M16.485 9.33778C16.6914 8.24817 16.6988 7.29244 16.6819 6.78623C16.6744 6.56302 16.4997 6.38836 16.2765 6.38086C15.7703 6.36389 14.8146 6.3713 13.7249 6.57773C13.3714 6.64472 13.2543 7.07536 13.5088 7.32984L15.7329 9.55392C15.9874 9.80841 16.418 9.69136 16.485 9.33778Z" stroke="currentColor" stroke-linecap="round" stroke-linejoin="round"/>
</svg>
