<svg width="24" height="24" viewBox="0 0 24 24" fill="none" xmlns="http://www.w3.org/2000/svg">
    <g clip-path="url(#clip0_233_2920)">
        <path d="M21.1528 8.4873V2.8623C21.1528 2.48934 21.0047 2.13165 20.741 1.86794C20.4773 1.60421 20.1195 1.45605 19.7466 1.45605H2.87158C2.49863 1.45605 2.14093 1.60421 1.87721 1.86794C1.61349 2.13165 1.46533 2.48934 1.46533 2.8623V18.331C1.46533 18.7041 1.61349 19.0617 1.87721 19.3254C2.14093 19.5892 2.49863 19.7373 2.87158 19.7373H8.49658" stroke="currentColor" stroke-linecap="round" stroke-linejoin="round"/>
        <path d="M1.46533 5.6748H21.1528" stroke="currentColor" stroke-linecap="round" stroke-linejoin="round"/>
        <path d="M11.3062 16.9248C11.3062 17.6636 11.4517 18.395 11.7343 19.0774C12.0171 19.7599 12.4313 20.38 12.9537 20.9023C13.476 21.4246 14.0962 21.839 14.7786 22.1216C15.4611 22.4043 16.1925 22.5498 16.9312 22.5498C17.6698 22.5498 18.4013 22.4043 19.0837 22.1216C19.7662 21.839 20.3863 21.4246 20.9087 20.9023C21.431 20.38 21.8453 19.7599 22.128 19.0774C22.4107 18.395 22.5562 17.6636 22.5562 16.9248C22.5562 16.1861 22.4107 15.4547 22.128 14.7722C21.8453 14.0898 21.431 13.4696 20.9086 12.9474C20.3863 12.425 19.7662 12.0107 19.0837 11.7281C18.4013 11.4453 17.6698 11.2998 16.9312 11.2998C16.1925 11.2998 15.4611 11.4453 14.7786 11.7281C14.0962 12.0107 13.476 12.425 12.9537 12.9474C12.4313 13.4696 12.0171 14.0898 11.7343 14.7722C11.4517 15.4547 11.3062 16.1861 11.3062 16.9248Z" stroke="currentColor" stroke-linecap="round" stroke-linejoin="round"/>
        <path d="M19.4174 16.9248H16.9312V14.4395" stroke="currentColor" stroke-linecap="round" stroke-linejoin="round"/>
    </g>
    <defs>
        <clipPath id="clip0_233_2920">
            <rect width="24" height="24" fill="white"/>
        </clipPath>
    </defs>
</svg>
