<svg width="24" height="24" viewBox="0 0 24 24" fill="none" xmlns="http://www.w3.org/2000/svg">
    <path d="M16.1589 7.36886C15.6348 7.04867 15.2299 6.5657 15.006 5.99373C14.7822 5.42176 14.7517 4.79224 14.9193 4.20134C15.0869 3.61044 15.4433 3.09064 15.9341 2.72136C16.4249 2.35207 17.0231 2.15361 17.6373 2.15628C18.2515 2.15895 18.848 2.36261 19.3355 2.73614C19.8231 3.10968 20.175 3.63255 20.3374 4.22489C20.4999 4.81723 20.464 5.44646 20.2352 6.01646C20.0064 6.58646 19.5973 7.06589 19.0703 7.38151C20.456 7.89292 21.5125 9.10605 21.8271 10.6C21.9339 11.1062 21.5036 11.5309 20.9861 11.5309H14.2089C13.691 11.5309 13.2611 11.1067 13.368 10.6C13.6853 9.09386 14.7564 7.87323 16.1589 7.36886Z" stroke="currentColor" stroke-linecap="round" stroke-linejoin="round"/>
    <path d="M7.8408 17.6816C8.365 17.3615 8.77 16.8786 8.99393 16.3067C9.21787 15.7347 9.24842 15.1052 9.08092 14.5143C8.91342 13.9233 8.55709 13.4035 8.06635 13.0341C7.57561 12.6648 6.97745 12.4662 6.36325 12.4688C5.74904 12.4713 5.15256 12.6749 4.66493 13.0484C4.1773 13.4218 3.82533 13.9446 3.66279 14.537C3.50025 15.1293 3.53607 15.7585 3.76478 16.3285C3.9935 16.8986 4.40253 17.3781 4.92939 17.6938C3.54376 18.2057 2.4872 19.4188 2.17267 20.9127C2.0658 21.4189 2.49611 21.8436 3.01361 21.8436H9.7908C10.3088 21.8436 10.7386 21.4194 10.6317 20.9127C10.3144 19.4066 9.2433 18.186 7.8408 17.6816Z" stroke="currentColor" stroke-linecap="round" stroke-linejoin="round"/>
    <path d="M2.27153 6.55319C2.20316 6.56396 2.13863 6.59184 2.08392 6.63423C2.02922 6.67662 1.98611 6.73214 1.95861 6.79565C1.93111 6.85916 1.92011 6.92859 1.92663 6.99749C1.93315 7.06639 1.95698 7.13253 1.9959 7.18975C2.64887 8.17788 3.66137 9.26632 4.17559 9.79741C4.35371 9.98116 4.64434 9.98022 4.82153 9.79554C5.31465 9.27991 6.27325 8.2346 6.97731 7.20335C7.01833 7.14539 7.04392 7.07795 7.05167 7.00737C7.05941 6.93679 7.04906 6.8654 7.02157 6.79993C6.99409 6.73446 6.95039 6.67706 6.89459 6.63316C6.83878 6.58925 6.77272 6.56028 6.70262 6.54897C5.3545 6.31553 3.6145 6.31647 2.27153 6.55319Z" stroke="currentColor" stroke-linecap="round" stroke-linejoin="round"/>
    <path d="M12.4683 2.15719L12.0244 2.15625C9.71297 2.15625 8.00906 2.23641 6.84328 2.32359C5.64562 2.41266 4.73812 3.33469 4.65562 4.53281C4.61426 5.14637 4.58192 5.7605 4.55859 6.375" stroke="currentColor" stroke-linecap="round" stroke-linejoin="round"/>
    <path d="M21.7275 17.447C21.7959 17.4364 21.8606 17.4086 21.9154 17.3663C21.9702 17.3239 22.0134 17.2684 22.041 17.2049C22.0686 17.1414 22.0797 17.0719 22.0733 17.0029C22.0668 16.934 22.043 16.8677 22.004 16.8105C21.3506 15.8223 20.3381 14.7339 19.8234 14.2028C19.7816 14.1592 19.7314 14.1246 19.6758 14.101C19.6202 14.0773 19.5604 14.0653 19.5 14.0654C19.4397 14.0656 19.3799 14.078 19.3245 14.102C19.269 14.1259 19.219 14.1608 19.1775 14.2047C18.6853 14.7203 17.7262 15.7656 17.0222 16.7969C16.9811 16.8548 16.9556 16.9223 16.9478 16.9928C16.9401 17.0634 16.9504 17.1348 16.9779 17.2003C17.0054 17.2658 17.0491 17.3231 17.1049 17.3671C17.1607 17.411 17.2268 17.4399 17.2969 17.4512C18.645 17.6847 20.3845 17.6837 21.7275 17.447Z" stroke="currentColor" stroke-linecap="round" stroke-linejoin="round"/>
    <path d="M13.4062 21.833C15.0061 21.8081 16.2445 21.7444 17.1548 21.6769C18.353 21.5878 19.2605 20.6663 19.343 19.4677C19.3781 18.9581 19.4123 18.3455 19.4409 17.625" stroke="currentColor" stroke-linecap="round" stroke-linejoin="round"/>
</svg>
