<svg width="24" height="24" viewBox="0 0 24 24" fill="none" xmlns="http://www.w3.org/2000/svg">
    <path d="M18.5625 8.71875C18.5625 12.3431 15.6244 15.2812 12 15.2812C8.37563 15.2812 5.4375 12.3431 5.4375 8.71875C5.4375 5.09438 8.37563 2.15625 12 2.15625C15.6244 2.15625 18.5625 5.09438 18.5625 8.71875Z" stroke="currentColor" stroke-linecap="round" stroke-linejoin="round"/>
    <path d="M9.35262 14.7256C6.96481 15.4376 5.09778 17.0862 4.36653 19.1506C3.96996 20.2709 4.79168 21.3242 5.96825 21.4915C7.23246 21.6706 9.18106 21.844 12.0001 21.844C14.8192 21.844 16.7673 21.6706 18.032 21.4915C19.2086 21.3242 20.0307 20.2709 19.6337 19.1506C18.9025 17.0862 17.0354 15.4376 14.6476 14.7256" stroke="currentColor" stroke-linecap="round" stroke-linejoin="round"/>
    <path d="M18.5625 8.71875C14.9381 8.71875 12 5.78063 12 2.15625C12 5.78063 9.06188 8.71875 5.4375 8.71875" stroke="currentColor" stroke-linecap="round" stroke-linejoin="round"/>
    <path d="M13.875 11.7656C13.0547 13.0158 10.9453 13.0158 10.125 11.7656" stroke="currentColor" stroke-linecap="round" stroke-linejoin="round"/>
    <path d="M9.65625 9.1875V9.42188" stroke="currentColor" stroke-linecap="round" stroke-linejoin="round"/>
    <path d="M14.3447 9.1875V9.42188" stroke="currentColor" stroke-linecap="round" stroke-linejoin="round"/>
</svg>
