<svg width="24" height="24" viewBox="0 0 24 24" fill="none" xmlns="http://www.w3.org/2000/svg">
    <path d="M2.41172 19.3106C2.45405 19.9007 2.70761 20.4558 3.12593 20.8741C3.54425 21.2924 4.0993 21.5459 4.68938 21.5883C6.24375 21.712 8.67844 21.8438 12 21.8438C15.3211 21.8438 17.7562 21.712 19.3106 21.5883C19.9007 21.5459 20.4558 21.2924 20.8741 20.8741C21.2924 20.4558 21.5459 19.9007 21.5883 19.3106C21.712 17.7562 21.8438 15.3216 21.8438 12C21.8438 8.67891 21.712 6.24375 21.5883 4.68938C21.5459 4.0993 21.2924 3.54425 20.8741 3.12593C20.4558 2.70761 19.9007 2.45405 19.3106 2.41172C17.7562 2.28797 15.3216 2.15625 12 2.15625C8.67891 2.15625 6.24375 2.28797 4.68938 2.41172C4.0993 2.45405 3.54425 2.70761 3.12593 3.12593C2.70761 3.54425 2.45405 4.0993 2.41172 4.68938C2.28797 6.24375 2.15625 8.67844 2.15625 12C2.15625 15.3211 2.28797 17.7562 2.41172 19.3106Z" stroke="currentColor" stroke-linecap="round"/>
    <path d="M15.1298 2.19824C15.1088 4.19512 14.9639 6.23793 14.88 7.27527C14.8738 7.35182 14.8486 7.42561 14.8067 7.49C14.7649 7.55438 14.7076 7.60733 14.6402 7.64407C14.5728 7.68082 14.4973 7.70019 14.4205 7.70046C14.3437 7.70072 14.268 7.68186 14.2003 7.64559L12.1097 6.5398C12.076 6.52199 12.0384 6.51268 12.0002 6.51268C11.9621 6.51268 11.9245 6.52199 11.8908 6.5398L9.80109 7.64605C9.7334 7.68233 9.65775 7.70119 9.58095 7.70093C9.50416 7.70066 9.42863 7.68128 9.36119 7.64454C9.29376 7.6078 9.23653 7.55485 9.19466 7.49046C9.1528 7.42608 9.12763 7.35229 9.12141 7.27574C9.03703 6.23793 8.89266 4.19512 8.87109 2.19824" stroke="currentColor" stroke-linecap="round" stroke-linejoin="round"/>
    <path d="M17.625 17.625H13.4062" stroke="currentColor" stroke-linecap="round"/>
    <path d="M17.625 13.875H15.2812" stroke="currentColor" stroke-linecap="round"/>
</svg>
