<svg width="24" height="24" viewBox="0 0 24 24" fill="none" xmlns="http://www.w3.org/2000/svg">
    <path d="M17.1562 4.5C17.1562 5.1216 17.4032 5.71774 17.8427 6.15728C18.2823 6.59682 18.8784 6.84375 19.5 6.84375C20.1216 6.84375 20.7177 6.59682 21.1573 6.15728C21.5968 5.71774 21.8437 5.1216 21.8438 4.5C21.8437 3.8784 21.5968 3.28226 21.1573 2.84272C20.7177 2.40318 20.1216 2.15625 19.5 2.15625C18.8784 2.15625 18.2823 2.40318 17.8427 2.84272C17.4032 3.28226 17.1563 3.8784 17.1562 4.5Z" stroke="currentColor" stroke-linecap="round" stroke-linejoin="round"/>
    <path d="M11.0625 8.25C11.0625 8.8716 10.8156 9.46774 10.376 9.90728C9.93649 10.3468 9.34035 10.5937 8.71875 10.5938C8.09715 10.5937 7.50101 10.3468 7.06147 9.90728C6.62193 9.46774 6.375 8.8716 6.375 8.25C6.375 7.6284 6.62193 7.03226 7.06147 6.59272C7.50101 6.15318 8.09715 5.90625 8.71875 5.90625C9.34035 5.90625 9.93649 6.15318 10.376 6.59272C10.8156 7.03226 11.0625 7.6284 11.0625 8.25Z" stroke="currentColor" stroke-linecap="round" stroke-linejoin="round"/>
    <path d="M18.5625 13.875C18.5625 14.4966 18.3156 15.0927 17.876 15.5323C17.4365 15.9718 16.8404 16.2187 16.2188 16.2188C15.5971 16.2187 15.001 15.9718 14.5615 15.5323C14.1219 15.0927 13.875 14.4966 13.875 13.875C13.875 13.2534 14.1219 12.6573 14.5615 12.2177C15.001 11.7782 15.5971 11.5312 16.2188 11.5312C16.8404 11.5312 17.4365 11.7782 17.876 12.2177C18.3156 12.6573 18.5625 13.2534 18.5625 13.875Z" stroke="currentColor" stroke-linecap="round" stroke-linejoin="round"/>
    <path d="M2.39062 17.1566C3.75375 14.5738 5.82 11.8152 7.21734 10.0645" stroke="currentColor" stroke-linecap="round" stroke-linejoin="round"/>
    <path d="M10.4722 9.82715C11.7701 10.8992 13.1651 11.8859 14.2554 12.6167" stroke="currentColor" stroke-linecap="round" stroke-linejoin="round"/>
    <path d="M16.8677 11.6384C17.4489 9.78496 18.1052 8.00559 18.6171 6.68652" stroke="currentColor" stroke-linecap="round" stroke-linejoin="round"/>
    <path d="M2.15625 2.15625C2.15625 9.79922 2.29734 17.3011 2.36063 20.2734C2.36759 20.6335 2.51373 20.9769 2.7684 21.2316C3.02307 21.4863 3.36647 21.6324 3.72656 21.6394C6.69891 21.7027 14.2008 21.8438 21.8438 21.8438" stroke="currentColor" stroke-linecap="round" stroke-linejoin="round"/>
</svg>
