<svg width="24" height="24" viewBox="0 0 24 24" fill="none" xmlns="http://www.w3.org/2000/svg">
    <path d="M21.6314 19.5127C21.5222 20.6456 20.6423 21.4856 19.508 21.5803C18.0042 21.7069 15.5513 21.8438 12 21.8438C8.44875 21.8438 5.99531 21.7064 4.49203 21.5803C3.35766 21.4856 2.47781 20.6456 2.36859 19.5131C2.25891 18.3764 2.15625 16.6861 2.15625 14.3438C2.15625 12.0014 2.25937 10.3106 2.36859 9.17484C2.47781 8.04187 3.35766 7.20187 4.49203 7.10719C5.99578 6.98062 8.44875 6.84375 12 6.84375C15.5513 6.84375 18.0047 6.98109 19.508 7.10719C20.6423 7.20187 21.5222 8.04188 21.6314 9.17438C21.7411 10.3106 21.8438 12.0009 21.8438 14.3438C21.8438 16.6861 21.7406 18.3769 21.6314 19.5127Z" stroke="currentColor" stroke-linecap="round" stroke-linejoin="round"/>
    <path d="M12 6.84375V21.8438" stroke="currentColor" stroke-linecap="round" stroke-linejoin="round"/>
    <path d="M2.15625 14.3438H21.8438" stroke="currentColor" stroke-linecap="round" stroke-linejoin="round"/>
    <path d="M12 6.84375C12 5.4375 10.125 2.15625 7.3125 2.15625C5.67188 2.15625 4.5 3.41531 4.5 4.96875C4.5 5.75719 4.82438 6.47016 5.3475 6.98062" stroke="currentColor" stroke-linecap="round" stroke-linejoin="round"/>
    <path d="M12 6.84375C12 5.4375 13.875 2.15625 16.6875 2.15625C18.3281 2.15625 19.5 3.41531 19.5 4.96875C19.5004 5.34373 19.4257 5.71498 19.2801 6.06055C19.1345 6.40612 18.9211 6.71898 18.6525 6.98062" stroke="currentColor" stroke-linecap="round" stroke-linejoin="round"/>
</svg>
